<?xml version="1.0" encoding="UTF-8" standalone="no"?>
<!-- Created with Inkscape (http://www.inkscape.org/) -->

<svg
   version="1.1"
   id="svg1"
   width="614.40002"
   height="345.60001"
   viewBox="0 0 614.40002 345.60001"
   sodipodi:docname="upload_7slyxwjwppwg2p37bwnobhnax2.pdf"
   xmlns:inkscape="http://www.inkscape.org/namespaces/inkscape"
   xmlns:sodipodi="http://sodipodi.sourceforge.net/DTD/sodipodi-0.dtd"
   xmlns="http://www.w3.org/2000/svg"
   xmlns:svg="http://www.w3.org/2000/svg">
  <defs
     id="defs1">
    <clipPath
       clipPathUnits="userSpaceOnUse"
       id="clipPath10">
      <path
         d="M 0,0 H 3000 V 3000 H 0 Z"
         transform="translate(0,3.2557593e-5)"
         id="path10" />
    </clipPath>
    <clipPath
       clipPathUnits="userSpaceOnUse"
       id="clipPath11">
      <path
         d="M 0,0 H 3000 V 3000 H 0 Z"
         transform="translate(0,3.2557593e-5)"
         id="path11" />
    </clipPath>
    <clipPath
       clipPathUnits="userSpaceOnUse"
       id="clipPath12">
      <path
         d="M 0,0 H 3000 V 3000 H 0 Z"
         transform="translate(0,3.2557593e-5)"
         id="path12" />
    </clipPath>
    <clipPath
       clipPathUnits="userSpaceOnUse"
       id="clipPath13">
      <path
         d="M 0,0 H 3000 V 3000 H 0 Z"
         transform="translate(0,3.2557593e-5)"
         id="path13" />
    </clipPath>
    <clipPath
       clipPathUnits="userSpaceOnUse"
       id="clipPath14">
      <path
         d="M 0,0 H 3000 V 3000 H 0 Z"
         transform="translate(0,3.2557593e-5)"
         id="path14" />
    </clipPath>
    <clipPath
       clipPathUnits="userSpaceOnUse"
       id="clipPath15">
      <path
         d="M 0,0 H 3000 V 3000 H 0 Z"
         transform="translate(0,3.2557593e-5)"
         id="path15" />
    </clipPath>
    <clipPath
       clipPathUnits="userSpaceOnUse"
       id="clipPath16">
      <path
         d="M 0,0 H 3000 V 3000 H 0 Z"
         transform="translate(0,3.2557593e-5)"
         id="path16" />
    </clipPath>
    <clipPath
       clipPathUnits="userSpaceOnUse"
       id="clipPath17">
      <path
         d="M 0,0 H 3000 V 3000 H 0 Z"
         transform="translate(0,3.2557593e-5)"
         id="path17" />
    </clipPath>
    <clipPath
       clipPathUnits="userSpaceOnUse"
       id="clipPath18">
      <path
         d="M 0,0 H 3000 V 3000 H 0 Z"
         transform="translate(0,3.2557593e-5)"
         id="path18" />
    </clipPath>
    <clipPath
       clipPathUnits="userSpaceOnUse"
       id="clipPath19">
      <path
         d="M 0,0 H 3000 V 3000 H 0 Z"
         transform="translate(0,3.2557593e-5)"
         id="path19" />
    </clipPath>
    <clipPath
       clipPathUnits="userSpaceOnUse"
       id="clipPath20">
      <path
         d="M 0,0 H 3000 V 3000 H 0 Z"
         transform="translate(0,3.2557593e-5)"
         id="path20" />
    </clipPath>
    <clipPath
       clipPathUnits="userSpaceOnUse"
       id="clipPath21">
      <path
         d="M 0,0 H 3000 V 3000 H 0 Z"
         transform="translate(0,3.2557593e-5)"
         id="path21" />
    </clipPath>
    <clipPath
       clipPathUnits="userSpaceOnUse"
       id="clipPath22">
      <path
         d="M 0,0 H 3000 V 3000 H 0 Z"
         transform="translate(0,3.2557593e-5)"
         id="path22" />
    </clipPath>
  </defs>
  <sodipodi:namedview
     id="namedview1"
     pagecolor="#ffffff"
     bordercolor="#000000"
     borderopacity="0.25"
     inkscape:showpageshadow="2"
     inkscape:pageopacity="0.0"
     inkscape:pagecheckerboard="0"
     inkscape:deskcolor="#d1d1d1">
    <inkscape:page
       x="0"
       y="0"
       inkscape:label="1"
       id="page1"
       width="614.40002"
       height="345.60001"
       margin="0"
       bleed="0" />
  </sodipodi:namedview>
  <g
     id="g1"
     inkscape:groupmode="layer"
     inkscape:label="1">
    <g
       id="g2">
      <path
         id="path2"
         d="m 294.84,136.831 1.317,-9.05 c 0.439,-2.852 -0.658,-4.772 -3.291,-5.759 -3.949,-1.426 -10.312,-2.139 -19.088,-2.139 -11.738,0 -20.048,3.318 -24.93,9.955 -4.881,6.637 -7.322,18.073 -7.322,34.309 0,16.016 2.331,27.233 6.993,33.651 4.663,6.417 12.589,9.626 23.778,9.626 8.776,0 15.632,-1.097 20.569,-3.291 0.768,-0.329 1.399,-0.658 1.892,-0.988 0.494,-0.329 0.905,-0.905 1.234,-1.727 0.329,-0.823 0.384,-1.838 0.165,-3.045 l -1.317,-9.214 c -0.219,-1.756 -0.987,-2.633 -2.303,-2.633 -0.22,0 -2.03,0.466 -5.43,1.398 -3.401,0.933 -6.802,1.399 -10.203,1.399 -3.729,0 -6.609,-0.658 -8.639,-1.974 -2.029,-1.317 -3.537,-3.813 -4.525,-7.488 -0.987,-3.675 -1.481,-9.022 -1.481,-16.043 0,-7.131 0.521,-12.561 1.564,-16.291 1.042,-3.73 2.605,-6.253 4.689,-7.569 2.085,-1.317 5.156,-1.975 9.215,-1.975 2.304,0 5.266,0.192 8.886,0.576 3.62,0.384 5.595,0.576 5.924,0.576 1.316,0 2.084,-0.768 2.303,-2.304 z"
         style="fill:#231f20;fill-opacity:1;fill-rule:nonzero;stroke:none"
         transform="matrix(1.3333333,0,0,-1.3333333,0,345.6)" />
      <path
         id="path3"
         d="m 336.966,155.755 -10.861,5.265 c -5.375,2.633 -9.352,5.595 -11.93,8.886 -2.578,3.291 -3.867,8.283 -3.867,14.974 0,8.228 2.414,14.042 7.241,17.443 4.826,3.4 12.341,5.101 22.543,5.101 10.312,0 17.662,-0.768 22.05,-2.304 1.865,-0.658 2.633,-2.139 2.304,-4.443 l -1.317,-8.227 c -0.11,-0.768 -0.247,-1.344 -0.411,-1.728 -0.165,-0.384 -0.439,-0.686 -0.823,-0.905 -0.384,-0.22 -0.96,-0.329 -1.728,-0.329 -0.548,0 -3.044,0.219 -7.487,0.658 -4.443,0.439 -8.09,0.658 -10.942,0.658 -3.95,0 -6.912,-0.494 -8.886,-1.481 -1.975,-0.987 -2.962,-2.797 -2.962,-5.43 0,-2.413 0.768,-4.251 2.304,-5.513 1.535,-1.261 4.278,-2.769 8.227,-4.525 0.768,-0.329 1.317,-0.548 1.646,-0.658 l 8.556,-3.949 c 5.814,-2.743 9.956,-5.705 12.424,-8.886 2.468,-3.181 3.702,-8.008 3.702,-14.48 0,-5.924 -1.042,-10.751 -3.126,-14.481 -2.084,-3.73 -5.54,-6.582 -10.367,-8.556 -4.827,-1.975 -11.08,-2.962 -18.759,-2.962 -8.227,0 -14.919,0.603 -20.075,1.81 -2.413,0.658 -3.456,2.249 -3.126,4.772 l 1.151,9.708 c 0.22,1.426 0.933,2.139 2.14,2.139 0.219,0 2.44,-0.247 6.664,-0.74 4.223,-0.494 8.255,-0.741 12.094,-0.741 2.633,0 4.882,0.192 6.747,0.576 1.865,0.384 3.318,0.96 4.361,1.728 1.042,0.768 1.782,1.646 2.221,2.633 0.439,0.987 0.658,2.194 0.658,3.62 0,2.413 -0.685,4.251 -2.057,5.512 -1.371,1.262 -4.141,2.88 -8.309,4.855 z"
         style="fill:#231f20;fill-opacity:1;fill-rule:nonzero;stroke:none"
         transform="matrix(1.3333333,0,0,-1.3333333,0,345.6)" />
      <path
         id="path4"
         d="m 429.608,236.549 h 13.987 c 1.865,0 2.797,-0.932 2.797,-2.797 v -77.833 c 0,-12.177 -2.496,-21.145 -7.487,-26.904 -4.991,-5.759 -13.301,-8.639 -24.93,-8.639 -12.505,0 -21.199,3.401 -26.081,10.202 -4.882,6.802 -7.322,17.827 -7.322,33.075 0,11.19 1.097,20.021 3.291,26.493 2.194,6.472 5.348,10.97 9.461,13.493 4.114,2.523 9.572,3.785 16.373,3.785 2.962,0 5.622,-0.302 7.981,-0.905 2.358,-0.604 4.196,-1.207 5.512,-1.81 1.317,-0.604 2.194,-0.905 2.633,-0.905 0.658,0 0.987,0.493 0.987,1.481 v 28.467 c 0,1.865 0.933,2.797 2.798,2.797 z m -2.304,-82.44 v 23.366 c 0,4.279 -1.097,7.323 -3.291,9.133 -2.194,1.81 -5.43,2.715 -9.708,2.715 -2.743,0 -4.937,-0.302 -6.582,-0.905 -1.646,-0.603 -3.1,-1.81 -4.361,-3.62 -1.262,-1.81 -2.139,-4.415 -2.633,-7.816 -0.494,-3.401 -0.74,-7.844 -0.74,-13.329 0,-7.021 0.521,-12.369 1.563,-16.044 1.042,-3.675 2.523,-6.115 4.443,-7.322 1.92,-1.207 4.689,-1.81 8.31,-1.81 4.717,0 8.063,1.179 10.037,3.538 1.975,2.358 2.962,6.39 2.962,12.094 z"
         style="fill:#231f20;fill-opacity:1;fill-rule:nonzero;stroke:none"
         transform="matrix(1.3333333,0,0,-1.3333333,0,345.6)" />
      <path
         id="path5"
         d="m 247.706,86.4076 v 6.4753 c 0,6.8904 0.933,11.5811 2.801,14.0711 1.868,2.491 5.459,3.736 10.772,3.736 2.49,0 5.271,-0.291 8.343,-0.872 0.83,-0.166 1.245,-0.622 1.245,-1.369 v -0.872 c 0,-0.415 -0.207,-0.623 -0.622,-0.623 l -1.495,0.249 c -0.913,0.166 -2.075,0.312 -3.486,0.436 -1.412,0.125 -2.74,0.187 -3.985,0.187 -4.151,0 -6.953,-0.934 -8.406,-2.802 -1.452,-1.868 -2.179,-5.7488 -2.179,-11.643 v -7.2225 c 0,-0.249 0.208,-0.3736 0.623,-0.3736 h 15.441 c 0.415,0 0.622,-0.2075 0.622,-0.6226 V 83.668 c 0,-0.4151 -0.207,-0.6226 -0.622,-0.6226 h -15.441 c -0.415,0 -0.623,-0.2076 -0.623,-0.6226 V 24.145 c 0,-0.4151 -0.207,-0.6226 -0.623,-0.6226 h -1.743 c -0.415,0 -0.622,0.2075 -0.622,0.6226 v 58.4023 c -0.167,0.3321 -0.374,0.4981 -0.623,0.4981 h -8.592 c -0.415,0 -0.623,0.2075 -0.623,0.6226 v 1.4943 c 0,0.4151 0.208,0.6226 0.623,0.6226 h 8.592 c 0.415,0 0.623,0.2076 0.623,0.6227 z"
         style="fill:#231f20;fill-opacity:1;fill-rule:nonzero;stroke:none"
         transform="matrix(1.3333333,0,0,-1.3333333,0,345.6)" />
      <path
         id="path6"
         d="m 313.455,85.7849 h 1.743 c 0.415,0 0.623,-0.2075 0.623,-0.6226 V 44.1935 c 0,-8.3846 -1.287,-14.0713 -3.861,-17.0599 -2.573,-2.9886 -7.471,-4.4829 -14.693,-4.4829 -7.223,0 -12.121,1.4943 -14.694,4.4829 -2.574,2.9886 -3.861,8.6753 -3.861,17.0599 v 40.9688 c 0,0.4151 0.208,0.6226 0.623,0.6226 h 1.743 c 0.415,0 0.623,-0.2075 0.623,-0.6226 V 43.6954 c 0,-7.3884 1.1,-12.2657 3.3,-14.6317 2.2,-2.3659 6.288,-3.5489 12.266,-3.5489 5.977,0 10.065,1.183 12.265,3.5489 2.2,2.366 3.3,7.2433 3.3,14.6317 v 41.4669 c 0,0.4151 0.208,0.6226 0.623,0.6226 z"
         style="fill:#231f20;fill-opacity:1;fill-rule:nonzero;stroke:none"
         transform="matrix(1.3333333,0,0,-1.3333333,0,345.6)" />
      <path
         id="path7"
         d="m 335.122,110.69 h 1.743 c 0.416,0 0.623,-0.208 0.623,-0.623 V 24.145 c 0,-0.4151 -0.207,-0.6226 -0.623,-0.6226 h -1.743 c -0.415,0 -0.622,0.2075 -0.622,0.6226 v 85.922 c 0,0.415 0.207,0.623 0.622,0.623 z"
         style="fill:#231f20;fill-opacity:1;fill-rule:nonzero;stroke:none"
         transform="matrix(1.3333333,0,0,-1.3333333,0,345.6)" />
      <path
         id="path8"
         d="m 390.162,110.69 h 1.744 c 0.415,0 0.622,-0.208 0.622,-0.623 V 42.0766 c 0,-7.2224 -1.453,-12.2657 -4.358,-15.1298 -2.906,-2.8641 -8.136,-4.2961 -15.69,-4.2961 -4.649,0 -8.24,0.7887 -10.772,2.366 -2.532,1.5773 -4.503,4.7112 -5.915,9.4016 -1.411,4.6905 -2.117,11.3941 -2.117,20.1108 0,8.8828 0.748,15.6902 2.242,20.4222 1.494,4.7319 3.549,7.8658 6.164,9.4016 2.615,1.5358 6.33,2.3037 11.145,2.3037 2.241,0 4.296,-0.1868 6.164,-0.5603 1.868,-0.3736 3.362,-0.851 4.483,-1.4321 1.12,-0.5811 2.054,-1.1622 2.802,-1.7433 0.747,-0.5812 1.328,-1.0585 1.743,-1.4321 0.415,-0.3736 0.664,-0.5603 0.747,-0.5603 0.249,0 0.374,0.1245 0.374,0.3735 v 28.765 c 0,0.415 0.207,0.623 0.622,0.623 z M 389.54,42.0766 v 27.3955 c 0,4.9811 -1.266,8.613 -3.798,10.896 -2.532,2.283 -6.662,3.4244 -12.391,3.4244 -3.071,0 -5.52,-0.3113 -7.347,-0.9339 -1.826,-0.6226 -3.507,-1.9094 -5.043,-3.8603 -1.536,-1.9509 -2.636,-4.9187 -3.3,-8.9035 -0.664,-3.9848 -0.996,-9.1734 -0.996,-15.5657 0,-8.3016 0.56,-14.5487 1.681,-18.741 1.121,-4.1923 2.74,-6.9527 4.857,-8.2809 2.116,-1.3283 5.209,-1.9924 9.277,-1.9924 6.475,0 10.937,1.2037 13.386,3.6112 2.449,2.4075 3.674,6.7244 3.674,12.9506 z"
         style="fill:#231f20;fill-opacity:1;fill-rule:nonzero;stroke:none"
         transform="matrix(1.3333333,0,0,-1.3333333,0,345.6)" />
      <path
         id="path9"
         d="m 412.328,82.7963 v 0.8717 c 0,0.6641 0.415,1.1207 1.245,1.3698 3.487,0.9962 7.513,1.4943 12.079,1.4943 7.471,0 12.639,-1.6811 15.503,-5.0433 2.864,-3.3622 4.296,-9.8997 4.296,-19.6127 V 24.145 c 0,-0.4151 -0.207,-0.6226 -0.622,-0.6226 h -0.872 c -0.664,0 -0.996,0.332 -0.996,0.9962 l -0.498,6.2262 c 0,0.083 -0.083,0.1246 -0.249,0.1246 -0.083,0 -0.332,-0.2906 -0.747,-0.8717 -0.415,-0.5811 -1.017,-1.266 -1.806,-2.0547 -0.789,-0.7886 -1.785,-1.5773 -2.989,-2.366 -1.203,-0.7886 -2.864,-1.4735 -4.981,-2.0546 -2.117,-0.5811 -4.462,-0.8717 -7.035,-0.8717 -5.562,0 -9.609,1.5151 -12.141,4.5452 -2.532,3.0301 -3.798,8.0318 -3.798,15.0052 0,6.3093 1.515,10.8752 4.545,13.6978 3.03,2.8226 7.492,4.2339 13.386,4.2339 h 14.321 c 0.996,0 1.494,0.4981 1.494,1.4943 0,8.9658 -1.245,14.8807 -3.736,17.7448 -2.49,2.8641 -6.973,4.2961 -13.449,4.2961 -1.577,0 -3.32,-0.1245 -5.23,-0.3736 -1.909,-0.249 -3.528,-0.4981 -4.856,-0.7471 -1.328,-0.2491 -2.076,-0.3736 -2.242,-0.3736 -0.415,0 -0.622,0.2076 -0.622,0.6226 z m 30.135,-38.2292 v 11.0828 c 0,1.0792 -0.457,1.6188 -1.37,1.6188 h -13.822 c -5.479,0 -9.443,-1.1415 -11.892,-3.4245 -2.449,-2.2829 -3.674,-6.1639 -3.674,-11.6431 0,-6.5583 1.038,-10.9789 3.113,-13.2619 2.076,-2.2829 5.355,-3.4244 9.838,-3.4244 5.977,0 10.439,1.6811 13.386,5.0432 2.947,3.3622 4.421,8.0319 4.421,14.0091 z"
         style="fill:#231f20;fill-opacity:1;fill-rule:nonzero;stroke:none"
         transform="matrix(1.3333333,0,0,-1.3333333,0,345.6)" />
      <g
         id="g35">
        <path
           d="M 1197.47,588.515 1500,592.511 V 140.59 c -24.72,-0.249 -42.73,39.028 -50.98,127.814 -20,78.674 -62.13,155.076 -122.66,229.587 -18.08,24.259 -59.52,54.069 -128.89,90.524 z"
           style="fill:#741b87;fill-opacity:1;fill-rule:evenodd;stroke:none"
           transform="matrix(0.10238267,0,0,-0.10238267,0,326.37467)"
           clip-path="url(#clipPath10)"
           id="path23" />
        <path
           d="M 1802.53,588.515 1452.07,592.511 1500,140.59 c 25.34,0.511 54.79,39.028 63.03,127.814 20,78.674 59.09,145.628 119.63,220.139 18.07,24.259 50.5,63.517 119.87,99.972 z"
           style="fill:#741b87;fill-opacity:1;fill-rule:evenodd;stroke:none"
           transform="matrix(0.10238267,0,0,-0.10238267,0,326.37467)"
           clip-path="url(#clipPath11)"
           id="path24" />
        <path
           d="m 2288.63,1040.64 c 24.43,-178.025 257.47,-149.614 271.29,-146.825 6.5,1.311 28.84,3.111 17.26,12.616 -15.37,12.611 -10.6,8.211 -16.51,14.722 0.07,0 -42.48,75.889 -53.84,119.037 z"
           style="fill:#014eff;fill-opacity:1;fill-rule:evenodd;stroke:none"
           transform="matrix(0.10238267,0,0,-0.10238267,0,326.37467)"
           clip-path="url(#clipPath12)"
           id="path25" />
        <path
           d="m 1460.21,1042.41 417.38,7.24 c 0.8,-0.39 0.05,-1.74 0.8,-2.14 15.48,-8.2 22.78,-17.57 16.73,-22.58 -7.61,-6.3 -70.3,-5.13 -85.34,-3.09 -6.69,0.91 -10.53,-3.92 -12.6,-7.16 -14.9,-23.304 74.99,-113.693 168.21,-161.065 3.4,-1.728 8.4,-3.473 10.23,-5.012 2.94,-2.477 1.92,-4.288 -4.05,-11.372 -44.92,-53.283 -231.65,-39.111 -340.32,109.178 -6.93,9.467 -18.02,-1.739 -21.08,-2.094 -14.07,-55.895 5.97,-108.306 3.99,-166.784 -1.34,-39.533 2.61,-68.472 20.81,-59.289 109.17,55.045 196.29,55.195 257.59,-7.027 11.32,-11.495 34.2,-31.678 44.82,-45.289 3.93,-5.028 7.76,-12.011 7.76,-12.011 0,0 4.38,-10.112 1.06,-12.812 -4.16,-3.372 -25.98,-7.438 -25.98,-7.438 0,0 -91.24,-29.228 -117.4,-45.15 l -339.31,0.427 z"
           style="fill:#014eff;fill-opacity:1;fill-rule:evenodd;stroke:none"
           transform="matrix(0.10238267,0,0,-0.10238267,0,326.37467)"
           clip-path="url(#clipPath13)"
           id="path26" />
        <path
           d="M 711.522,1040.64 C 690.878,872.992 453.907,891.037 440.082,893.815 c -6.498,1.305 -28.845,3.111 -17.26,12.616 15.372,12.611 10.597,8.211 16.51,14.722 -0.075,0 42.481,75.889 53.832,119.037 z"
           style="fill:#014eff;fill-opacity:1;fill-rule:evenodd;stroke:none"
           transform="matrix(0.10238267,0,0,-0.10238267,0,326.37467)"
           clip-path="url(#clipPath14)"
           id="path27" />
        <path
           d="m 1500,1041.97 -377.31,6.31 c -0.8,-0.39 -1.97,-2.38 -2.72,-2.78 -15.53,-8.2 -21.15,-15.56 -15.09,-20.57 7.62,-6.3 70.3,-5.13 85.34,-3.09 6.69,0.91 10.53,-3.92 12.6,-7.16 14.9,-23.304 -74.99,-113.693 -168.21,-161.065 -3.4,-1.728 -8.4,-3.473 -10.23,-5.012 -2.94,-2.477 -1.92,-4.288 4.05,-11.372 44.92,-53.283 231.65,-39.111 340.32,109.178 6.93,9.467 18.02,-1.739 21.08,-2.094 14.07,-55.895 -5.97,-108.306 -3.99,-166.784 1.34,-39.533 -2.61,-68.472 -20.81,-59.289 -109.17,55.045 -196.29,55.195 -257.59,-7.027 -11.32,-11.495 -34.2,-31.678 -44.82,-45.289 -3.93,-5.028 -7.76,-12.011 -7.76,-12.011 0,0 -4.38,-10.112 -1.06,-12.812 4.16,-3.372 25.98,-7.438 25.98,-7.438 0,0 91.24,-29.228 117.4,-45.15 l 302.82,0.011 z"
           style="fill:#014eff;fill-opacity:1;fill-rule:evenodd;stroke:none"
           transform="matrix(0.10238267,0,0,-0.10238267,0,326.37467)"
           clip-path="url(#clipPath15)"
           id="path28" />
        <path
           d="m 1352.27,1499.33 c 1.58,-11.13 10,-55.1 -13.23,-55.22 -18.05,3.57 -17.47,44.92 -23.48,54.55 l -950.59,0.52 c -0.234,-66.43 -8.217,-139.86 25.466,-196.43 66.711,-112.05 114.856,-205.16 102.461,-263.54 l 218.553,0.83 c 73.75,326.01 410.19,340.91 513.32,133.74 4.11,-20.77 -28.8,-26.62 -54.49,-59.95 -4.85,-6.29 -14.7,-29.47 -14.7,-29.47 -0.44,-1.76 -7.94,-19.66 -19.38,-25.08 -10.72,-5.09 -17.6,-13.55 -17.6,-13.55 l -4.14,-3.35 c 0,0 4.06,0.07 4.23,0 l 381.31,-1.14 v 458.09 z"
           style="fill:#008026;fill-opacity:1;fill-rule:evenodd;stroke:none"
           transform="matrix(0.10238267,0,0,-0.10238267,0,326.37467)"
           clip-path="url(#clipPath16)"
           id="path29" />
        <path
           d="m 1657.83,1499.33 c -1.37,-11.14 -20.09,-55.1 3.13,-55.22 17.99,3.58 32.73,45.67 39.82,55.22 l 934.25,-0.15 c 0.24,-66.43 8.21,-139.86 -25.46,-196.43 -66.71,-112.05 -114.86,-205.16 -102.46,-263.54 l -218.56,0.83 c -73.75,326.01 -410.19,340.91 -513.32,133.74 -4.11,-20.77 28.8,-26.62 54.49,-59.95 4.85,-6.29 14.7,-29.47 14.7,-29.47 0.44,-1.76 7.94,-19.66 19.38,-25.08 9.01,-4.27 17.74,-11.83 17.74,-11.83 l 5.18,-4.99 c 0,0 -5.03,0.08 -5.41,-0.08 l -425.32,-1.18 10.61,458.13 z"
           style="fill:#008026;fill-opacity:1;fill-rule:evenodd;stroke:none"
           transform="matrix(0.10238267,0,0,-0.10238267,0,326.37467)"
           clip-path="url(#clipPath17)"
           id="path30" />
        <path
           d="m 1204.18,1965.11 c 45.74,-157.2 98.71,-311.34 148.24,-466.96 l 305.12,-0.52 c 54.61,154.52 114.07,308.42 162.58,463.73 z"
           style="fill:#ffed00;fill-opacity:1;fill-rule:evenodd;stroke:none"
           transform="matrix(0.10238267,0,0,-0.10238267,0,326.37467)"
           clip-path="url(#clipPath18)"
           id="path31" />
        <path
           d="M 1316.17,1497.63 H 364.962 c -11.566,213.73 122.606,341.13 403.627,348.62 230.578,2.84 427.281,-104.33 547.581,-348.62 z"
           style="fill:#ffed00;fill-opacity:1;fill-rule:evenodd;stroke:none"
           transform="matrix(0.10238267,0,0,-0.10238267,0,326.37467)"
           clip-path="url(#clipPath19)"
           id="path32" />
        <path
           d="m 1699.63,1497.63 h 935.41 c 11.57,213.73 -122.61,341.13 -403.63,348.62 -230.58,2.84 -411.48,-104.33 -531.78,-348.62 z"
           style="fill:#ffed00;fill-opacity:1;fill-rule:evenodd;stroke:none"
           transform="matrix(0.10238267,0,0,-0.10238267,0,326.37467)"
           clip-path="url(#clipPath20)"
           id="path33" />
        <path
           d="m 1166.8,2407.74 696.77,-2.44 c 15.36,-161.24 -0.2,-310.44 -44.8,-448.33 l -613.2,3.37 c -68.65,220.3 -63.66,244.11 -38.77,447.4 z"
           style="fill:#ff8d00;fill-opacity:1;fill-rule:evenodd;stroke:none"
           transform="matrix(0.10238267,0,0,-0.10238267,0,326.37467)"
           clip-path="url(#clipPath21)"
           id="path34" />
        <path
           d="m 1166.8,2407.49 696.77,-2.19 c -42.49,165.69 -287.7,463.45 -363.57,453.89 -53.11,-6.7 -288.81,-281.71 -333.2,-451.7 z"
           style="fill:#e42104;fill-opacity:1;fill-rule:evenodd;stroke:none"
           transform="matrix(0.10238267,0,0,-0.10238267,0,326.37467)"
           clip-path="url(#clipPath22)"
           id="path35" />
      </g>
      <path
         id="path36"
         d="m 246.475,216.256 v -0.091 c 0,-0.121 -0.061,-0.2 -0.182,-0.237 -0.606,-0.109 -1.376,-0.163 -2.31,-0.163 -0.788,0 -1.403,0.079 -1.846,0.236 -0.442,0.158 -0.8,0.491 -1.073,1 -0.273,0.51 -0.448,1.158 -0.527,1.946 -0.079,0.789 -0.118,1.904 -0.118,3.347 0,1.867 0.103,3.246 0.309,4.137 0.206,0.892 0.554,1.501 1.045,1.828 0.492,0.328 1.252,0.491 2.283,0.491 0.921,0 1.606,-0.042 2.055,-0.127 0.121,-0.012 0.182,-0.079 0.182,-0.2 v -0.146 c 0,-0.06 -0.03,-0.091 -0.091,-0.091 l -0.855,0.073 c -0.57,0.037 -1.03,0.055 -1.382,0.055 -0.509,0 -0.921,-0.043 -1.237,-0.128 -0.315,-0.084 -0.603,-0.239 -0.864,-0.463 -0.26,-0.225 -0.451,-0.57 -0.572,-1.037 -0.122,-0.467 -0.216,-1.046 -0.282,-1.737 -0.067,-0.691 -0.1,-1.576 -0.1,-2.655 0,-1.819 0.081,-3.14 0.245,-3.965 0.164,-0.824 0.452,-1.385 0.864,-1.682 0.412,-0.297 1.079,-0.446 2.001,-0.446 0.363,0 0.727,0.012 1.091,0.037 0.364,0.024 0.661,0.048 0.891,0.072 0.23,0.025 0.358,0.037 0.382,0.037 0.06,0 0.091,-0.031 0.091,-0.091 z"
         style="fill:#231f20;fill-opacity:1;fill-rule:nonzero;stroke:none"
         transform="matrix(1.3333333,0,0,-1.3333333,0,345.6)" />
      <path
         id="path37"
         d="m 255.386,228.623 h 0.273 c 0.061,0 0.091,-0.03 0.091,-0.091 v -12.549 c 0,-0.061 -0.03,-0.091 -0.091,-0.091 h -0.273 c -0.06,0 -0.091,0.03 -0.091,0.091 v 6.056 c 0,0.061 -0.03,0.091 -0.09,0.091 h -5.547 c -0.061,0 -0.091,-0.03 -0.091,-0.091 v -6.056 c 0,-0.061 -0.031,-0.091 -0.091,-0.091 h -0.273 c -0.061,0 -0.091,0.03 -0.091,0.091 v 12.549 c 0,0.061 0.03,0.091 0.091,0.091 h 0.273 c 0.06,0 0.091,-0.03 0.091,-0.091 v -5.874 c 0,-0.061 0.03,-0.091 0.091,-0.091 h 5.547 c 0.06,0 0.09,0.03 0.09,0.091 v 5.874 c 0,0.061 0.031,0.091 0.091,0.091 z"
         style="fill:#231f20;fill-opacity:1;fill-rule:nonzero;stroke:none"
         transform="matrix(1.3333333,0,0,-1.3333333,0,345.6)" />
      <path
         id="path38"
         d="m 259.442,215.983 v 9.857 c 0,0.51 0.036,0.925 0.109,1.246 0.073,0.321 0.209,0.603 0.409,0.846 0.2,0.242 0.491,0.418 0.873,0.527 0.382,0.109 0.876,0.164 1.483,0.164 1.115,0 1.927,-0.258 2.437,-0.773 0.509,-0.515 0.764,-1.391 0.764,-2.628 0,-0.958 -0.173,-1.707 -0.519,-2.246 -0.345,-0.54 -0.888,-0.9 -1.628,-1.082 -0.121,-0.025 -0.157,-0.097 -0.109,-0.219 l 2.747,-5.674 c 0.024,-0.073 0,-0.109 -0.073,-0.109 h -0.255 c -0.073,0 -0.121,0.03 -0.145,0.091 l -2.746,5.602 c -0.073,0.109 -0.194,0.163 -0.364,0.163 h -2.437 c -0.061,0 -0.091,-0.03 -0.091,-0.091 v -5.674 c 0,-0.061 -0.031,-0.091 -0.091,-0.091 h -0.273 c -0.061,0 -0.091,0.03 -0.091,0.091 z m 0.546,6.202 h 2.273 c 1.019,0 1.734,0.263 2.146,0.791 0.412,0.527 0.619,1.27 0.619,2.228 0,1.091 -0.207,1.861 -0.619,2.31 -0.412,0.448 -1.115,0.672 -2.11,0.672 -0.921,0 -1.551,-0.166 -1.891,-0.5 -0.339,-0.333 -0.509,-0.967 -0.509,-1.9 v -3.51 c 0,-0.061 0.03,-0.091 0.091,-0.091 z"
         style="fill:#231f20;fill-opacity:1;fill-rule:nonzero;stroke:none"
         transform="matrix(1.3333333,0,0,-1.3333333,0,345.6)" />
      <path
         id="path39"
         d="m 268.845,228.623 h 0.273 c 0.06,0 0.091,-0.03 0.091,-0.091 v -12.549 c 0,-0.061 -0.031,-0.091 -0.091,-0.091 h -0.273 c -0.061,0 -0.091,0.03 -0.091,0.091 v 12.549 c 0,0.061 0.03,0.091 0.091,0.091 z"
         style="fill:#231f20;fill-opacity:1;fill-rule:nonzero;stroke:none"
         transform="matrix(1.3333333,0,0,-1.3333333,0,345.6)" />
      <path
         id="path40"
         d="m 272.682,216.128 v 0.146 c 0,0.061 0.031,0.091 0.091,0.091 0.024,0 0.124,-0.012 0.3,-0.036 0.176,-0.025 0.443,-0.052 0.8,-0.082 0.358,-0.031 0.779,-0.046 1.264,-0.046 0.595,0 1.083,0.052 1.465,0.155 0.381,0.103 0.679,0.273 0.891,0.509 0.212,0.236 0.36,0.512 0.445,0.828 0.085,0.315 0.128,0.715 0.128,1.2 0,0.788 -0.173,1.388 -0.519,1.8 -0.345,0.413 -1.039,0.904 -2.082,1.474 -0.073,0.036 -0.176,0.09 -0.309,0.163 -0.328,0.182 -0.567,0.315 -0.719,0.4 -0.151,0.085 -0.342,0.203 -0.573,0.355 -0.23,0.152 -0.397,0.279 -0.5,0.382 -0.103,0.103 -0.221,0.236 -0.354,0.4 -0.134,0.164 -0.225,0.333 -0.273,0.509 -0.049,0.176 -0.094,0.379 -0.137,0.61 -0.042,0.23 -0.063,0.485 -0.063,0.763 0,1.079 0.242,1.849 0.727,2.31 0.485,0.461 1.34,0.691 2.565,0.691 0.703,0 1.442,-0.048 2.218,-0.145 0.122,-0.012 0.182,-0.073 0.182,-0.182 v -0.218 c 0,-0.061 -0.03,-0.091 -0.091,-0.091 -0.012,0 -0.112,0.018 -0.3,0.054 -0.188,0.037 -0.457,0.07 -0.809,0.1 -0.352,0.031 -0.728,0.046 -1.128,0.046 -1.067,0 -1.812,-0.197 -2.237,-0.591 -0.424,-0.394 -0.636,-1.076 -0.636,-2.046 0,-0.231 0.015,-0.434 0.045,-0.61 0.031,-0.175 0.058,-0.327 0.082,-0.454 0.024,-0.128 0.091,-0.258 0.2,-0.391 0.109,-0.134 0.191,-0.237 0.246,-0.31 0.054,-0.072 0.185,-0.175 0.391,-0.309 0.206,-0.133 0.357,-0.227 0.454,-0.282 0.097,-0.054 0.3,-0.169 0.61,-0.345 0.309,-0.176 0.542,-0.306 0.7,-0.391 1.127,-0.643 1.876,-1.188 2.246,-1.637 0.37,-0.449 0.555,-1.14 0.555,-2.073 0,-1.067 -0.252,-1.852 -0.755,-2.356 -0.503,-0.503 -1.343,-0.754 -2.519,-0.754 -1.152,0 -1.958,0.054 -2.419,0.163 -0.121,0.025 -0.182,0.091 -0.182,0.2 z"
         style="fill:#231f20;fill-opacity:1;fill-rule:nonzero;stroke:none"
         transform="matrix(1.3333333,0,0,-1.3333333,0,345.6)" />
      <path
         id="path41"
         d="m 280.103,228.641 h 6.82 c 0.06,0 0.091,-0.03 0.091,-0.091 v -0.254 c 0,-0.061 -0.031,-0.091 -0.091,-0.091 h -3.092 c -0.061,0 -0.091,-0.031 -0.091,-0.091 v -12.131 c 0,-0.061 -0.03,-0.091 -0.091,-0.091 h -0.273 c -0.06,0 -0.091,0.03 -0.091,0.091 v 12.131 c 0,0.06 -0.03,0.091 -0.091,0.091 h -3.091 c -0.061,0 -0.091,0.03 -0.091,0.091 v 0.254 c 0,0.061 0.03,0.091 0.091,0.091 z"
         style="fill:#231f20;fill-opacity:1;fill-rule:nonzero;stroke:none"
         transform="matrix(1.3333333,0,0,-1.3333333,0,345.6)" />
      <path
         id="path42"
         d="m 291.815,228.75 c 1.455,0 2.398,-0.43 2.828,-1.291 0.43,-0.861 0.646,-2.583 0.646,-5.165 0,-1.067 -0.028,-1.937 -0.082,-2.61 -0.055,-0.673 -0.149,-1.282 -0.282,-1.828 -0.133,-0.545 -0.334,-0.961 -0.6,-1.246 -0.267,-0.285 -0.6,-0.497 -1.001,-0.636 -0.4,-0.14 -0.903,-0.209 -1.509,-0.209 -0.606,0 -1.113,0.069 -1.519,0.209 -0.406,0.139 -0.742,0.351 -1.009,0.636 -0.267,0.285 -0.467,0.701 -0.6,1.246 -0.134,0.546 -0.228,1.155 -0.282,1.828 -0.055,0.673 -0.082,1.543 -0.082,2.61 0,1.067 0.027,1.937 0.082,2.61 0.054,0.673 0.148,1.276 0.282,1.809 0.133,0.534 0.333,0.937 0.6,1.21 0.267,0.273 0.603,0.479 1.009,0.618 0.406,0.14 0.913,0.209 1.519,0.209 z m 0,-0.436 c -1.249,0 -2.061,-0.388 -2.437,-1.164 -0.376,-0.776 -0.564,-2.401 -0.564,-4.874 0,-1.031 0.024,-1.871 0.073,-2.519 0.048,-0.649 0.133,-1.222 0.254,-1.719 0.122,-0.497 0.301,-0.87 0.537,-1.118 0.236,-0.249 0.521,-0.431 0.855,-0.546 0.333,-0.115 0.761,-0.173 1.282,-0.173 0.521,0 0.949,0.058 1.282,0.173 0.334,0.115 0.615,0.297 0.846,0.546 0.23,0.248 0.406,0.621 0.527,1.118 0.121,0.497 0.206,1.07 0.255,1.719 0.048,0.648 0.073,1.488 0.073,2.519 0,1.03 -0.025,1.87 -0.073,2.519 -0.049,0.648 -0.13,1.218 -0.246,1.709 -0.115,0.491 -0.291,0.858 -0.527,1.1 -0.237,0.243 -0.521,0.422 -0.855,0.537 -0.333,0.115 -0.761,0.173 -1.282,0.173 z"
         style="fill:#231f20;fill-opacity:1;fill-rule:nonzero;stroke:none"
         transform="matrix(1.3333333,0,0,-1.3333333,0,345.6)" />
      <path
         id="path43"
         d="m 298.653,215.983 v 9.894 c 0,1.006 0.203,1.715 0.609,2.128 0.407,0.412 1.222,0.618 2.447,0.618 1.103,0 1.903,-0.261 2.4,-0.782 0.497,-0.521 0.746,-1.407 0.746,-2.655 0,-1.322 -0.249,-2.286 -0.746,-2.892 -0.497,-0.606 -1.376,-0.909 -2.637,-0.909 h -2.328 c -0.024,0 -0.036,-0.013 -0.036,-0.037 v -5.365 c 0,-0.061 -0.03,-0.091 -0.091,-0.091 h -0.273 c -0.06,0 -0.091,0.03 -0.091,0.091 z m 0.491,5.838 h 2.328 c 1.128,0 1.892,0.255 2.292,0.764 0.4,0.509 0.6,1.37 0.6,2.582 0,1.104 -0.2,1.883 -0.6,2.337 -0.4,0.455 -1.091,0.682 -2.074,0.682 -0.982,0 -1.658,-0.163 -2.027,-0.491 -0.37,-0.327 -0.555,-0.933 -0.555,-1.818 v -4.02 c 0,-0.024 0.012,-0.036 0.036,-0.036 z"
         style="fill:#231f20;fill-opacity:1;fill-rule:nonzero;stroke:none"
         transform="matrix(1.3333333,0,0,-1.3333333,0,345.6)" />
      <path
         id="path44"
         d="m 313.585,228.623 h 0.273 c 0.06,0 0.09,-0.03 0.09,-0.091 v -12.549 c 0,-0.061 -0.03,-0.091 -0.09,-0.091 h -0.273 c -0.061,0 -0.091,0.03 -0.091,0.091 v 6.056 c 0,0.061 -0.031,0.091 -0.091,0.091 h -5.547 c -0.061,0 -0.091,-0.03 -0.091,-0.091 v -6.056 c 0,-0.061 -0.03,-0.091 -0.091,-0.091 h -0.273 c -0.06,0 -0.091,0.03 -0.091,0.091 v 12.549 c 0,0.061 0.031,0.091 0.091,0.091 h 0.273 c 0.061,0 0.091,-0.03 0.091,-0.091 v -5.874 c 0,-0.061 0.03,-0.091 0.091,-0.091 h 5.547 c 0.06,0 0.091,0.03 0.091,0.091 v 5.874 c 0,0.061 0.03,0.091 0.091,0.091 z"
         style="fill:#231f20;fill-opacity:1;fill-rule:nonzero;stroke:none"
         transform="matrix(1.3333333,0,0,-1.3333333,0,345.6)" />
      <path
         id="path45"
         d="m 320.459,228.623 h 2.947 c 0.06,0 0.091,-0.03 0.091,-0.091 v -0.255 c 0,-0.06 -0.031,-0.091 -0.091,-0.091 h -2.91 c -1.043,0 -1.704,-0.136 -1.983,-0.409 -0.278,-0.273 -0.418,-0.912 -0.418,-1.918 v -3.038 c 0,-0.06 0.03,-0.091 0.091,-0.091 h 4.874 c 0.061,0 0.091,-0.03 0.091,-0.091 v -0.254 c 0,-0.061 -0.03,-0.091 -0.091,-0.091 h -4.874 c -0.061,0 -0.091,-0.024 -0.091,-0.073 v -3.565 c 0,-1.006 0.14,-1.645 0.418,-1.918 0.279,-0.273 0.94,-0.409 1.983,-0.409 h 2.91 c 0.06,0 0.091,-0.031 0.091,-0.091 v -0.255 c 0,-0.061 -0.031,-0.091 -0.091,-0.091 h -2.91 c -1.14,0 -1.901,0.17 -2.283,0.509 -0.382,0.34 -0.573,1.013 -0.573,2.019 v 7.675 c 0,1.006 0.188,1.679 0.564,2.019 0.376,0.339 1.128,0.509 2.255,0.509 z"
         style="fill:#231f20;fill-opacity:1;fill-rule:nonzero;stroke:none"
         transform="matrix(1.3333333,0,0,-1.3333333,0,345.6)" />
      <path
         id="path46"
         d="m 326.679,215.983 v 9.857 c 0,0.51 0.037,0.925 0.109,1.246 0.073,0.321 0.21,0.603 0.41,0.846 0.2,0.242 0.491,0.418 0.873,0.527 0.382,0.109 0.876,0.164 1.482,0.164 1.115,0 1.928,-0.258 2.437,-0.773 0.509,-0.515 0.764,-1.391 0.764,-2.628 0,-0.958 -0.173,-1.707 -0.519,-2.246 -0.345,-0.54 -0.888,-0.9 -1.627,-1.082 -0.121,-0.025 -0.158,-0.097 -0.109,-0.219 l 2.746,-5.674 c 0.024,-0.073 0,-0.109 -0.073,-0.109 h -0.255 c -0.072,0 -0.121,0.03 -0.145,0.091 l -2.746,5.602 c -0.073,0.109 -0.194,0.163 -0.364,0.163 h -2.437 c -0.061,0 -0.091,-0.03 -0.091,-0.091 v -5.674 c 0,-0.061 -0.03,-0.091 -0.091,-0.091 h -0.273 c -0.06,0 -0.091,0.03 -0.091,0.091 z m 0.546,6.202 h 2.273 c 1.019,0 1.734,0.263 2.146,0.791 0.413,0.527 0.619,1.27 0.619,2.228 0,1.091 -0.206,1.861 -0.619,2.31 -0.412,0.448 -1.115,0.672 -2.109,0.672 -0.922,0 -1.552,-0.166 -1.892,-0.5 -0.339,-0.333 -0.509,-0.967 -0.509,-1.9 v -3.51 c 0,-0.061 0.03,-0.091 0.091,-0.091 z"
         style="fill:#231f20;fill-opacity:1;fill-rule:nonzero;stroke:none"
         transform="matrix(1.3333333,0,0,-1.3333333,0,345.6)" />
      <path
         id="path47"
         d="m 339.356,216.128 v 0.146 c 0,0.061 0.03,0.091 0.091,0.091 0.024,0 0.124,-0.012 0.3,-0.036 0.176,-0.025 0.442,-0.052 0.8,-0.082 0.358,-0.031 0.779,-0.046 1.264,-0.046 0.594,0 1.082,0.052 1.464,0.155 0.382,0.103 0.679,0.273 0.891,0.509 0.212,0.236 0.361,0.512 0.446,0.828 0.085,0.315 0.127,0.715 0.127,1.2 0,0.788 -0.173,1.388 -0.518,1.8 -0.346,0.413 -1.04,0.904 -2.083,1.474 -0.072,0.036 -0.176,0.09 -0.309,0.163 -0.327,0.182 -0.567,0.315 -0.718,0.4 -0.152,0.085 -0.343,0.203 -0.573,0.355 -0.231,0.152 -0.397,0.279 -0.5,0.382 -0.103,0.103 -0.222,0.236 -0.355,0.4 -0.133,0.164 -0.224,0.333 -0.273,0.509 -0.048,0.176 -0.094,0.379 -0.136,0.61 -0.043,0.23 -0.064,0.485 -0.064,0.763 0,1.079 0.243,1.849 0.728,2.31 0.485,0.461 1.339,0.691 2.564,0.691 0.703,0 1.443,-0.048 2.219,-0.145 0.121,-0.012 0.182,-0.073 0.182,-0.182 v -0.218 c 0,-0.061 -0.031,-0.091 -0.091,-0.091 -0.012,0 -0.112,0.018 -0.3,0.054 -0.188,0.037 -0.458,0.07 -0.81,0.1 -0.351,0.031 -0.727,0.046 -1.127,0.046 -1.067,0 -1.813,-0.197 -2.237,-0.591 -0.425,-0.394 -0.637,-1.076 -0.637,-2.046 0,-0.231 0.015,-0.434 0.046,-0.61 0.03,-0.175 0.057,-0.327 0.082,-0.454 0.024,-0.128 0.09,-0.258 0.2,-0.391 0.109,-0.134 0.191,-0.237 0.245,-0.31 0.055,-0.072 0.185,-0.175 0.391,-0.309 0.206,-0.133 0.358,-0.227 0.455,-0.282 0.097,-0.054 0.3,-0.169 0.609,-0.345 0.309,-0.176 0.543,-0.306 0.7,-0.391 1.128,-0.643 1.877,-1.188 2.246,-1.637 0.37,-0.449 0.555,-1.14 0.555,-2.073 0,-1.067 -0.252,-1.852 -0.755,-2.356 -0.503,-0.503 -1.342,-0.754 -2.519,-0.754 -1.151,0 -1.958,0.054 -2.418,0.163 -0.122,0.025 -0.182,0.091 -0.182,0.2 z"
         style="fill:#231f20;fill-opacity:1;fill-rule:nonzero;stroke:none"
         transform="matrix(1.3333333,0,0,-1.3333333,0,345.6)" />
      <path
         id="path48"
         d="m 346.776,228.641 h 6.82 c 0.061,0 0.091,-0.03 0.091,-0.091 v -0.254 c 0,-0.061 -0.03,-0.091 -0.091,-0.091 h -3.092 c -0.06,0 -0.091,-0.031 -0.091,-0.091 v -12.131 c 0,-0.061 -0.03,-0.091 -0.091,-0.091 h -0.272 c -0.061,0 -0.091,0.03 -0.091,0.091 v 12.131 c 0,0.06 -0.031,0.091 -0.091,0.091 h -3.092 c -0.061,0 -0.091,0.03 -0.091,0.091 v 0.254 c 0,0.061 0.03,0.091 0.091,0.091 z"
         style="fill:#231f20;fill-opacity:1;fill-rule:nonzero;stroke:none"
         transform="matrix(1.3333333,0,0,-1.3333333,0,345.6)" />
      <path
         id="path49"
         d="m 355.869,215.983 v 9.857 c 0,0.51 0.037,0.925 0.11,1.246 0.072,0.321 0.209,0.603 0.409,0.846 0.2,0.242 0.491,0.418 0.873,0.527 0.382,0.109 0.876,0.164 1.482,0.164 1.115,0 1.928,-0.258 2.437,-0.773 0.509,-0.515 0.764,-1.391 0.764,-2.628 0,-0.958 -0.173,-1.707 -0.518,-2.246 -0.346,-0.54 -0.889,-0.9 -1.628,-1.082 -0.121,-0.025 -0.158,-0.097 -0.109,-0.219 l 2.746,-5.674 c 0.024,-0.073 0,-0.109 -0.073,-0.109 h -0.254 c -0.073,0 -0.122,0.03 -0.146,0.091 l -2.746,5.602 c -0.073,0.109 -0.194,0.163 -0.364,0.163 h -2.437 c -0.061,0 -0.091,-0.03 -0.091,-0.091 v -5.674 c 0,-0.061 -0.03,-0.091 -0.091,-0.091 h -0.273 c -0.06,0 -0.091,0.03 -0.091,0.091 z m 0.546,6.202 h 2.273 c 1.019,0 1.734,0.263 2.147,0.791 0.412,0.527 0.618,1.27 0.618,2.228 0,1.091 -0.206,1.861 -0.618,2.31 -0.413,0.448 -1.116,0.672 -2.11,0.672 -0.922,0 -1.552,-0.166 -1.892,-0.5 -0.339,-0.333 -0.509,-0.967 -0.509,-1.9 v -3.51 c 0,-0.061 0.03,-0.091 0.091,-0.091 z"
         style="fill:#231f20;fill-opacity:1;fill-rule:nonzero;stroke:none"
         transform="matrix(1.3333333,0,0,-1.3333333,0,345.6)" />
      <path
         id="path50"
         d="m 368,228.623 h 2.946 c 0.061,0 0.091,-0.03 0.091,-0.091 v -0.255 c 0,-0.06 -0.03,-0.091 -0.091,-0.091 h -2.909 c -1.043,0 -1.704,-0.136 -1.983,-0.409 -0.279,-0.273 -0.418,-0.912 -0.418,-1.918 v -3.038 c 0,-0.06 0.03,-0.091 0.091,-0.091 h 4.874 c 0.061,0 0.091,-0.03 0.091,-0.091 v -0.254 c 0,-0.061 -0.03,-0.091 -0.091,-0.091 h -4.874 c -0.061,0 -0.091,-0.024 -0.091,-0.073 v -3.565 c 0,-1.006 0.139,-1.645 0.418,-1.918 0.279,-0.273 0.94,-0.409 1.983,-0.409 h 2.909 c 0.061,0 0.091,-0.031 0.091,-0.091 v -0.255 c 0,-0.061 -0.03,-0.091 -0.091,-0.091 h -2.909 c -1.14,0 -1.901,0.17 -2.283,0.509 -0.382,0.34 -0.573,1.013 -0.573,2.019 v 7.675 c 0,1.006 0.188,1.679 0.564,2.019 0.376,0.339 1.128,0.509 2.255,0.509 z"
         style="fill:#231f20;fill-opacity:1;fill-rule:nonzero;stroke:none"
         transform="matrix(1.3333333,0,0,-1.3333333,0,345.6)" />
      <path
         id="path51"
         d="m 377.039,228.623 h 2.946 c 0.061,0 0.091,-0.03 0.091,-0.091 v -0.255 c 0,-0.06 -0.03,-0.091 -0.091,-0.091 h -2.91 c -1.042,0 -1.703,-0.136 -1.982,-0.409 -0.279,-0.273 -0.418,-0.912 -0.418,-1.918 v -3.038 c 0,-0.06 0.03,-0.091 0.091,-0.091 h 4.874 c 0.06,0 0.091,-0.03 0.091,-0.091 v -0.254 c 0,-0.061 -0.031,-0.091 -0.091,-0.091 h -4.874 c -0.061,0 -0.091,-0.024 -0.091,-0.073 v -3.565 c 0,-1.006 0.139,-1.645 0.418,-1.918 0.279,-0.273 0.94,-0.409 1.982,-0.409 h 2.91 c 0.061,0 0.091,-0.031 0.091,-0.091 v -0.255 c 0,-0.061 -0.03,-0.091 -0.091,-0.091 h -2.91 c -1.139,0 -1.9,0.17 -2.282,0.509 -0.382,0.34 -0.573,1.013 -0.573,2.019 v 7.675 c 0,1.006 0.188,1.679 0.564,2.019 0.376,0.339 1.128,0.509 2.255,0.509 z"
         style="fill:#231f20;fill-opacity:1;fill-rule:nonzero;stroke:none"
         transform="matrix(1.3333333,0,0,-1.3333333,0,345.6)" />
      <path
         id="path52"
         d="m 381.84,228.641 h 6.821 c 0.06,0 0.091,-0.03 0.091,-0.091 v -0.254 c 0,-0.061 -0.031,-0.091 -0.091,-0.091 h -3.092 c -0.061,0 -0.091,-0.031 -0.091,-0.091 v -12.131 c 0,-0.061 -0.03,-0.091 -0.091,-0.091 h -0.273 c -0.061,0 -0.091,0.03 -0.091,0.091 v 12.131 c 0,0.06 -0.03,0.091 -0.091,0.091 h -3.092 c -0.06,0 -0.09,0.03 -0.09,0.091 v 0.254 c 0,0.061 0.03,0.091 0.09,0.091 z"
         style="fill:#231f20;fill-opacity:1;fill-rule:nonzero;stroke:none"
         transform="matrix(1.3333333,0,0,-1.3333333,0,345.6)" />
      <path
         id="path53"
         d="m 394.699,228.623 h 2.637 c 0.558,0 1.015,-0.039 1.373,-0.118 0.358,-0.079 0.7,-0.243 1.027,-0.491 0.328,-0.249 0.582,-0.607 0.764,-1.073 0.182,-0.467 0.328,-1.086 0.437,-1.855 0.109,-0.77 0.17,-1.713 0.182,-2.829 0.012,-1.115 -0.037,-2.058 -0.146,-2.828 -0.109,-0.77 -0.254,-1.385 -0.436,-1.846 -0.182,-0.46 -0.44,-0.818 -0.773,-1.073 -0.334,-0.254 -0.682,-0.421 -1.046,-0.5 -0.364,-0.079 -0.824,-0.118 -1.382,-0.118 h -2.637 c -0.122,0 -0.182,0.061 -0.182,0.182 v 12.367 c 0,0.121 0.06,0.182 0.182,0.182 z m 0.327,-12.294 h 2.31 c 0.497,0 0.912,0.045 1.246,0.136 0.333,0.091 0.639,0.258 0.918,0.5 0.279,0.243 0.494,0.585 0.646,1.028 0.151,0.442 0.269,1.012 0.354,1.709 0.085,0.697 0.128,1.549 0.128,2.555 0,1.007 -0.043,1.859 -0.128,2.556 -0.085,0.697 -0.203,1.267 -0.354,1.709 -0.152,0.443 -0.367,0.785 -0.646,1.028 -0.279,0.242 -0.585,0.409 -0.918,0.5 -0.334,0.091 -0.749,0.136 -1.246,0.136 h -2.31 c -0.036,0 -0.055,-0.018 -0.055,-0.054 v -11.749 c 0,-0.036 0.019,-0.054 0.055,-0.054 z"
         style="fill:#231f20;fill-opacity:1;fill-rule:nonzero;stroke:none"
         transform="matrix(1.3333333,0,0,-1.3333333,0,345.6)" />
      <path
         id="path54"
         d="m 404.72,225.822 2.237,2.583 c 0.157,0.194 0.315,0.291 0.473,0.291 0.157,0 0.315,-0.097 0.472,-0.291 l 2.237,-2.583 c 0.158,-0.17 0.237,-0.382 0.237,-0.636 v -9.203 c 0,-0.061 -0.03,-0.091 -0.091,-0.091 h -0.273 c -0.061,0 -0.091,0.03 -0.091,0.091 v 4.11 c 0,0.061 -0.03,0.091 -0.091,0.091 h -4.801 c -0.061,0 -0.091,-0.03 -0.091,-0.091 v -4.11 c 0,-0.061 -0.03,-0.091 -0.091,-0.091 h -0.273 c -0.06,0 -0.091,0.03 -0.091,0.091 v 9.203 c 0,0.254 0.079,0.466 0.237,0.636 z m 5.019,-0.236 -2.182,2.546 c -0.037,0.06 -0.079,0.091 -0.127,0.091 -0.025,0 -0.067,-0.031 -0.128,-0.091 l -2.182,-2.546 c -0.121,-0.134 -0.182,-0.291 -0.182,-0.473 v -4.401 c 0,-0.061 0.03,-0.091 0.091,-0.091 h 4.801 c 0.061,0 0.091,0.03 0.091,0.091 v 4.401 c 0,0.182 -0.06,0.339 -0.182,0.473 z"
         style="fill:#231f20;fill-opacity:1;fill-rule:nonzero;stroke:none"
         transform="matrix(1.3333333,0,0,-1.3333333,0,345.6)" />
      <path
         id="path55"
         d="m 419.833,228.623 h 0.273 c 0.06,0 0.091,-0.03 0.091,-0.091 v -3.601 c 0,-0.303 -0.134,-0.612 -0.4,-0.928 l -2.11,-2.637 c -0.158,-0.218 -0.236,-0.43 -0.236,-0.636 v -4.747 c 0,-0.061 -0.031,-0.091 -0.091,-0.091 h -0.273 c -0.061,0 -0.091,0.03 -0.091,0.091 v 4.747 c 0,0.242 -0.085,0.454 -0.255,0.636 l -2.309,2.637 c -0.243,0.267 -0.364,0.576 -0.364,0.928 v 3.601 c 0,0.061 0.03,0.091 0.091,0.091 h 0.273 c 0.06,0 0.09,-0.03 0.09,-0.091 v -3.583 c 0,-0.23 0.079,-0.43 0.237,-0.6 l 2.346,-2.728 c 0.085,-0.085 0.164,-0.079 0.236,0.018 l 2.165,2.71 c 0.157,0.218 0.236,0.43 0.236,0.637 v 3.546 c 0,0.061 0.03,0.091 0.091,0.091 z"
         style="fill:#231f20;fill-opacity:1;fill-rule:nonzero;stroke:none"
         transform="matrix(1.3333333,0,0,-1.3333333,0,345.6)" />
    </g>
  </g>
</svg>
