<?xml version="1.0" encoding="UTF-8" standalone="no"?>
<!-- Created with Inkscape (http://www.inkscape.org/) -->

<svg
   version="1.1"
   id="svg1"
   width="720"
   height="720"
   viewBox="0 0 720 720"
   sodipodi:docname="upload_nevqd3ephxdsuzpzi3hks5j4tx.pdf"
   xmlns:inkscape="http://www.inkscape.org/namespaces/inkscape"
   xmlns:sodipodi="http://sodipodi.sourceforge.net/DTD/sodipodi-0.dtd"
   xmlns="http://www.w3.org/2000/svg"
   xmlns:svg="http://www.w3.org/2000/svg">
  <defs
     id="defs1" />
  <sodipodi:namedview
     id="namedview1"
     pagecolor="#ffffff"
     bordercolor="#000000"
     borderopacity="0.25"
     inkscape:showpageshadow="2"
     inkscape:pageopacity="0.0"
     inkscape:pagecheckerboard="0"
     inkscape:deskcolor="#d1d1d1">
    <inkscape:page
       x="0"
       y="0"
       inkscape:label="1"
       id="page1"
       width="720"
       height="720"
       margin="0"
       bleed="0" />
  </sodipodi:namedview>
  <g
     id="g1"
     inkscape:groupmode="layer"
     inkscape:label="1">
    <g
       id="g2">
      <path
         id="path2"
         d="M 215.544,98.664 270,99.3834 V 18.0375 c -4.45,-0.0447 -7.692,7.0252 -9.176,23.0066 -3.6,14.1613 -11.183,27.9136 -22.08,41.3256 -3.254,4.3666 -10.712,9.7325 -23.2,16.2943 z"
         style="fill:#741b87;fill-opacity:1;fill-rule:evenodd;stroke:none"
         transform="matrix(1.3333333,0,0,-1.3333333,0,720)" />
      <path
         id="path3"
         d="M 324.456,98.664 261.372,99.3834 270,18.0375 c 4.562,0.092 9.862,7.0252 11.346,23.0066 3.6,14.1613 10.635,26.2131 21.532,39.6251 3.254,4.3665 9.09,11.433 21.578,17.9948 z"
         style="fill:#741b87;fill-opacity:1;fill-rule:evenodd;stroke:none"
         transform="matrix(1.3333333,0,0,-1.3333333,0,720)" />
      <path
         id="path4"
         d="m 411.953,180.047 c 4.398,-32.045 46.345,-26.931 48.832,-26.429 1.17,0.236 5.192,0.56 3.107,2.271 -2.767,2.27 -1.907,1.478 -2.972,2.65 0.014,0 -7.646,13.66 -9.69,21.427 z"
         style="fill:#014eff;fill-opacity:1;fill-rule:evenodd;stroke:none"
         transform="matrix(1.3333333,0,0,-1.3333333,0,720)" />
      <path
         id="path5"
         d="m 262.837,180.366 75.13,1.302 c 0.144,-0.07 0.008,-0.312 0.143,-0.384 2.787,-1.476 4.101,-3.163 3.012,-4.065 -1.371,-1.135 -12.655,-0.923 -15.362,-0.556 -1.204,0.163 -1.895,-0.706 -2.267,-1.289 -2.682,-4.195 13.497,-20.465 30.277,-28.992 0.613,-0.311 1.512,-0.625 1.841,-0.902 0.529,-0.446 0.346,-0.772 -0.729,-2.047 -8.085,-9.591 -41.697,-7.04 -61.257,19.652 -1.248,1.704 -3.243,-0.313 -3.795,-0.377 -2.532,-10.061 1.075,-19.495 0.718,-30.021 -0.241,-7.116 0.47,-12.325 3.747,-10.672 19.651,9.908 35.331,9.935 46.365,-1.265 2.038,-2.069 6.156,-5.702 8.068,-8.152 0.707,-0.905 1.398,-2.162 1.398,-2.162 0,0 0.788,-1.82 0.19,-2.306 -0.748,-0.607 -4.677,-1.339 -4.677,-1.339 0,0 -16.422,-5.261 -21.132,-8.127 l -61.075,0.077 z"
         style="fill:#014eff;fill-opacity:1;fill-rule:evenodd;stroke:none"
         transform="matrix(1.3333333,0,0,-1.3333333,0,720)" />
      <path
         id="path6"
         d="m 128.074,180.047 c -3.716,-30.177 -46.3708,-26.929 -48.8593,-26.429 -1.1696,0.235 -5.1921,0.56 -3.1068,2.271 2.767,2.27 1.9075,1.478 2.9718,2.65 -0.0135,0 7.6466,13.66 9.6898,21.427 z"
         style="fill:#014eff;fill-opacity:1;fill-rule:evenodd;stroke:none"
         transform="matrix(1.3333333,0,0,-1.3333333,0,720)" />
      <path
         id="path7"
         d="m 270,180.286 -67.915,1.135 c -0.144,-0.07 -0.356,-0.427 -0.491,-0.499 -2.794,-1.477 -3.806,-2.801 -2.716,-3.703 1.372,-1.134 12.655,-0.923 15.362,-0.556 1.204,0.163 1.895,-0.706 2.267,-1.289 2.682,-4.195 -13.497,-20.465 -30.277,-28.992 -0.613,-0.311 -1.512,-0.625 -1.841,-0.902 -0.529,-0.446 -0.346,-0.772 0.729,-2.047 8.085,-9.591 41.697,-7.04 61.257,19.652 1.248,1.704 3.243,-0.313 3.795,-0.377 2.532,-10.061 -1.075,-19.495 -0.718,-30.021 0.241,-7.116 -0.47,-12.325 -3.747,-10.672 -19.651,9.908 -35.331,9.935 -46.365,-1.265 -2.038,-2.069 -6.156,-5.702 -8.068,-8.152 -0.707,-0.905 -1.398,-2.162 -1.398,-2.162 0,0 -0.788,-1.82 -0.19,-2.306 0.748,-0.607 4.677,-1.339 4.677,-1.339 0,0 16.422,-5.261 21.132,-8.127 L 270,98.6661 Z"
         style="fill:#014eff;fill-opacity:1;fill-rule:evenodd;stroke:none"
         transform="matrix(1.3333333,0,0,-1.3333333,0,720)" />
      <path
         id="path8"
         d="m 243.408,262.61 c 0.285,-2.002 1.801,-9.918 -2.38,-9.938 -3.249,0.642 -3.146,8.085 -4.227,9.819 l -171.1064,0.092 c -0.0422,-11.957 -1.479,-25.174 4.5838,-35.356 12.008,-20.169 20.6742,-36.93 18.4431,-47.437 l 39.3395,0.148 c 13.275,58.682 73.834,61.365 92.397,24.074 0.74,-3.738 -5.184,-4.792 -9.807,-10.792 -0.873,-1.132 -2.646,-5.304 -2.646,-5.304 -0.079,-0.316 -1.429,-3.538 -3.489,-4.515 -1.93,-0.915 -3.168,-2.438 -3.168,-2.438 l -0.745,-0.604 c 0,0 0.731,0.014 0.762,0.001 L 270,180.155 v 82.455 z"
         style="fill:#008026;fill-opacity:1;fill-rule:evenodd;stroke:none"
         transform="matrix(1.3333333,0,0,-1.3333333,0,720)" />
      <path
         id="path9"
         d="m 298.41,262.61 c -0.248,-2.004 -3.617,-9.918 0.562,-9.938 3.239,0.643 5.893,8.22 7.169,9.938 l 168.164,-0.027 c 0.043,-11.957 1.479,-25.174 -4.583,-35.356 -12.008,-20.169 -20.675,-36.93 -18.443,-47.437 l -39.34,0.148 c -13.275,58.682 -73.834,61.365 -92.397,24.074 -0.74,-3.738 5.184,-4.792 9.807,-10.792 0.873,-1.132 2.646,-5.304 2.646,-5.304 0.079,-0.316 1.429,-3.538 3.489,-4.515 1.621,-0.768 3.194,-2.128 3.194,-2.128 l 0.931,-0.899 c 0,0 -0.904,0.015 -0.974,-0.014 l -76.556,-0.212 1.909,82.462 z"
         style="fill:#008026;fill-opacity:1;fill-rule:evenodd;stroke:none"
         transform="matrix(1.3333333,0,0,-1.3333333,0,720)" />
      <path
         id="path10"
         d="m 216.752,346.452 c 8.233,-28.297 17.768,-56.042 26.684,-84.054 l 54.922,-0.094 c 9.829,27.815 20.532,55.517 29.264,83.472 z"
         style="fill:#ffed00;fill-opacity:1;fill-rule:evenodd;stroke:none"
         transform="matrix(1.3333333,0,0,-1.3333333,0,720)" />
      <path
         id="path11"
         d="M 236.91,262.304 H 65.6932 c -2.082,38.472 22.069,61.405 72.6528,62.752 41.504,0.512 76.911,-18.779 98.564,-62.752 z"
         style="fill:#ffed00;fill-opacity:1;fill-rule:evenodd;stroke:none"
         transform="matrix(1.3333333,0,0,-1.3333333,0,720)" />
      <path
         id="path12"
         d="m 305.934,262.304 h 168.373 c 2.082,38.472 -22.069,61.405 -72.653,62.752 -41.504,0.512 -74.067,-18.779 -95.72,-62.752 z"
         style="fill:#ffed00;fill-opacity:1;fill-rule:evenodd;stroke:none"
         transform="matrix(1.3333333,0,0,-1.3333333,0,720)" />
      <path
         id="path13"
         d="m 210.024,426.124 125.418,-0.439 c 2.765,-29.022 -0.036,-55.878 -8.063,-80.699 l -110.377,0.607 c -12.357,39.653 -11.459,43.94 -6.978,80.531 z"
         style="fill:#ff8d00;fill-opacity:1;fill-rule:evenodd;stroke:none"
         transform="matrix(1.3333333,0,0,-1.3333333,0,720)" />
      <path
         id="path14"
         d="m 210.024,426.08 125.418,-0.395 c -7.648,29.824 -51.785,83.421 -65.442,81.7 -9.56,-1.205 -51.985,-50.708 -59.976,-81.305 z"
         style="fill:#e42104;fill-opacity:1;fill-rule:evenodd;stroke:none"
         transform="matrix(1.3333333,0,0,-1.3333333,0,720)" />
    </g>
  </g>
</svg>
